PathFileType	4	(X/Y/Z)	C:/Users/opensim2020/Desktop/walking_exp_matlab/subject03_walking11_straight_03.trc	
DataRate	CameraRate	NumFrames	NumMarkers	Units	OrigDataRate	OrigDataStartFrame	OrigNumFrames	
100.00	100.00	4	46	mm	100.00	2835	380	
Frame#	Time	LFHD			RFHD			LBHD			RBHD			C7			T10			CLAV			STRN			RBAK			LSHO			LUPA			LELB			LFRM			LWRA			LWRB			LFIN			RSHO			RUPA			RELB			RFRM			RWRA			RWRB			RFIN			LASI			RASI			LPSI			RPSI			LTHI			LKNE			LTIB			LANK			LHEE			LTOE			RTHI			RKNE			RTIB			RANK			RHEE			RTOE			*39			*40			*41			*42			*43			*44			*45			
		X1	Y1	Z1	X2	Y2	Z2	X3	Y3	Z3	X4	Y4	Z4	X5	Y5	Z5	X6	Y6	Z6	X7	Y7	Z7	X8	Y8	Z8	X9	Y9	Z9	X10	Y10	Z10	X11	Y11	Z11	X12	Y12	Z12	X13	Y13	Z13	X14	Y14	Z14	X15	Y15	Z15	X16	Y16	Z16	X17	Y17	Z17	X18	Y18	Z18	X19	Y19	Z19	X20	Y20	Z20	X21	Y21	Z21	X22	Y22	Z22	X23	Y23	Z23	X24	Y24	Z24	X25	Y25	Z25	X26	Y26	Z26	X27	Y27	Z27	X28	Y28	Z28	X29	Y29	Z29	X30	Y30	Z30	X31	Y31	Z31	X32	Y32	Z32	X33	Y33	Z33	X34	Y34	Z34	X35	Y35	Z35	X36	Y36	Z36	X37	Y37	Z37	X38	Y38	Z38	X39	Y39	Z39	X40	Y40	Z40	X41	Y41	Z41	X42	Y42	Z42	X43	Y43	Z43	X44	Y44	Z44	X45	Y45	Z45	X46	Y46	Z46	

96	0.950	1385.01758	-477.31418	1613.87390	1518.68225	-474.50290	1618.59460	1393.50024	-603.53131	1566.19128	1524.24866	-596.08105	1570.80554	1458.65759	-629.60486	1413.04785	1454.49243	-678.84088	1102.80469	1445.86340	-512.38416	1330.06604	1438.24512	-478.75125	1162.82483	1559.83521	-680.34912	1242.18689	1295.12317	-573.43921	1371.53003	1229.53625	-621.94464	1177.61707	1218.46448	-635.32520	1054.51099	1219.67725	-617.42596	925.23987	1252.07715	-599.45062	808.12323	1205.66333	-630.72424	812.35767	1217.27222	-617.48737	728.99823	1608.59778	-538.02435	1355.30261	1684.75525	-501.03918	1140.20789	1695.11975	-459.67206	1035.28162	1689.10889	-407.14932	908.89697	1644.03162	-359.27768	826.10077	1691.98547	-379.31772	812.71173	1676.90784	-336.66354	754.20721	1334.48120	-518.58606	931.00714	1571.65112	-518.21436	932.86810	1382.10828	-681.02081	954.23193	1531.48376	-678.25464	970.27380	1282.62402	-515.68762	632.05487	1327.36938	-444.01450	471.43399	1320.79834	-423.14902	284.09998	1347.50574	-353.09280	82.94362	1388.24402	-378.69550	40.38297	1363.44055	-197.11911	81.47427	1609.26318	-614.61804	645.82343	1574.99280	-635.77753	466.97650	1577.19995	-724.66290	294.94711	1525.69873	-801.18030	91.09226	1475.24707	-850.19275	67.97087	1507.71875	-665.73468	35.91225																					 
97	0.960	1384.15491	-470.18750	1613.34790	1517.91455	-467.44693	1618.12512	1392.53882	-596.24420	1565.42859	1523.35217	-589.00104	1570.02783	1457.44006	-622.13647	1412.26965	1453.16687	-671.23529	1102.09619	1445.22327	-504.75162	1329.43396	1437.78125	-471.22516	1162.05103	1558.70996	-673.07928	1241.48413	1294.23547	-565.52222	1370.69849	1228.80310	-613.64258	1176.57520	1217.81958	-626.85168	1053.39954	1219.21338	-609.16376	924.20593	1251.65649	-591.15045	806.94037	1205.26501	-622.30847	811.25244	1217.15503	-609.47021	727.82141	1607.73987	-530.81042	1354.67725	1683.65808	-493.76962	1139.50500	1693.71301	-452.32217	1034.54248	1687.33020	-399.54733	908.30804	1641.99304	-351.43246	825.98169	1689.85376	-371.50644	812.14447	1674.51318	-328.70901	753.74847	1333.94849	-510.61407	930.07025	1571.34692	-511.24527	932.15454	1380.83582	-673.36487	953.58386	1530.07153	-671.14612	969.39661	1282.93555	-507.75955	631.04517	1327.84888	-436.68265	470.44452	1320.90857	-415.21292	283.41681	1347.73035	-344.65729	82.38138	1388.56335	-369.90192	39.53230	1362.75122	-188.74115	81.98555	1608.98035	-608.56342	645.46130	1574.91333	-630.34521	466.62729	1577.21716	-721.29913	295.47757	1525.90552	-800.34564	92.47298	1475.41956	-849.63855	69.97343	1507.75183	-665.67413	35.72113																					 
98	0.970	1383.24097	-463.04776	1612.90100	1516.94592	-460.55267	1617.65845	1391.49683	-588.98938	1564.58069	1522.34961	-581.86285	1569.28210	1456.43677	-614.35712	1411.57690	1451.85559	-663.64911	1101.45911	1444.41748	-497.14932	1328.73474	1437.29187	-463.51578	1161.42883	1557.37085	-665.57800	1240.83264	1293.24329	-557.48480	1369.82068	1228.03479	-605.16559	1175.65222	1217.07092	-618.81793	1052.27637	1218.72107	-600.49255	923.10406	1251.31445	-582.73889	805.86707	1204.79016	-613.70947	810.15375	1217.05408	-601.11230	726.64771	1606.85120	-523.61993	1354.15344	1682.42883	-486.53500	1138.87109	1692.33643	-445.07867	1033.90637	1685.55005	-392.14523	907.70093	1639.89917	-343.94373	825.43390	1687.74377	-363.96838	811.51141	1672.12195	-321.13455	753.17358	1333.55005	-502.23041	929.33325	1570.92871	-504.30887	931.57111	1379.39355	-665.00360	952.76038	1528.71960	-663.90369	968.63110	1283.19263	-499.56766	630.17395	1328.03723	-429.04828	469.59518	1320.96826	-407.85861	282.55017	1348.26685	-338.29694	81.21033	1389.31140	-363.33295	38.27038	1362.50854	-182.38925	81.00086	1608.90271	-602.55817	645.33582	1574.84875	-624.78497	466.32727	1577.30859	-717.83624	296.10626	1526.10913	-799.49109	94.03656	1475.58569	-849.01099	72.08997	1507.84998	-665.52698	35.65460																					 
99	0.980	1382.29041	-455.78659	1612.50452	1516.00842	-453.51218	1617.31543	1390.45081	-581.64288	1563.85022	1521.25488	-574.72485	1568.56396	1455.13623	-606.78943	1410.93689	1450.46240	-655.78363	1100.79736	1443.53857	-489.49069	1328.23010	1436.77588	-455.61594	1160.85010	1556.09900	-658.11938	1240.26135	1292.17847	-549.38605	1369.05603	1227.12793	-596.46466	1174.59094	1216.36084	-609.65533	1051.48389	1218.11450	-591.53949	922.12653	1252.51465	-575.81769	804.26984	1204.20947	-604.83325	809.15192	1216.75903	-592.47607	725.60925	1605.86829	-516.24713	1353.63464	1681.12488	-479.19739	1138.28284	1690.83606	-437.78461	1033.20654	1683.73743	-384.84616	907.05170	1637.84021	-336.62625	824.95123	1685.69629	-356.61081	810.86713	1669.81555	-313.83868	752.55194	1333.08948	-493.71503	928.53357	1570.53760	-497.20605	931.04767	1377.96655	-656.96454	952.14618	1527.25452	-656.45453	967.92419	1283.33557	-491.13589	629.60565	1328.02136	-421.13873	468.84012	1321.04773	-401.32175	281.44360	1349.13538	-333.62778	79.53767	1390.43909	-359.39883	36.93513	1363.29065	-178.24599	78.64064	1608.52991	-596.14252	645.04724	1574.84668	-619.02167	466.03207	1577.36743	-714.20825	296.80215	1526.47546	-798.49176	95.68804	1475.94934	-848.30322	74.47873	1507.99231	-665.30524	35.64535																					 
